<svg width="200" height="40" viewBox="0 0 200 40" fill="none" xmlns="http://www.w3.org/2000/svg">
<g clip-path="url(#clip0_3_255)">
<path d="M19.9666 13.6895V4.00668C19.9666 2.33723 21.3022 1.00167 22.9716 1.00167C24.6411 1.00167 25.9766 2.33723 25.9766 4.00668V5.67613C25.9766 7.14524 27.1786 8.34725 28.6477 8.34725C30.1169 8.34725 31.3189 7.14524 31.3189 5.67613V0.333893" stroke="#839594" stroke-width="2" stroke-miterlimit="10"/>
<path d="M8.81472 27.0451C5.94327 27.0451 3.4057 25.5092 2.00337 23.1719L1.13525 35.0584C1.13525 37.596 3.20537 39.7329 5.80971 39.7329C7.87983 39.7329 9.68283 38.3973 10.2838 36.394L14.0234 25.1085C12.5543 26.3105 10.7513 27.0451 8.81472 27.0451Z" fill="#F3F3F3"/>
<path d="M31.3189 27.0451C34.1904 27.0451 36.7279 25.5092 38.1303 23.1719L38.9316 35.0584C38.9316 37.596 36.8615 39.7329 34.2571 39.7329C32.187 39.7329 30.384 38.3973 29.783 36.394L26.0435 25.1085C27.5126 26.3105 29.3156 27.0451 31.3189 27.0451Z" fill="#F3F3F3"/>
<path d="M20.0335 28.3806C19.9667 28.1803 19.9667 27.9132 19.9667 27.7128C19.9667 27.9132 19.9667 28.1803 19.8999 28.3806H20.0335Z" fill="#38454F"/>
<path d="M26.5109 26.3105L26.1102 25.1753C26.177 25.2421 26.2438 25.2421 26.3106 25.3088C24.5076 23.8397 23.3056 21.636 23.3056 19.0985C23.3056 16.6945 24.374 14.5576 26.0435 13.0885H14.157C15.8264 14.5576 16.8949 16.6945 16.8949 19.0985C16.8949 21.5025 15.8264 23.6394 14.157 25.1085C14.2238 25.1753 14.2905 25.3088 14.2905 25.3756C14.8915 24.7746 15.6929 24.3739 16.6278 24.3739C18.4308 24.3739 19.8999 25.8431 19.9667 27.5793C20.0334 25.7763 21.5026 24.3739 23.3056 24.3739C24.6411 24.3739 25.8431 25.1753 26.3773 26.3773C26.4441 26.3105 26.4441 26.3105 26.5109 26.3105Z" fill="#F3F3F3"/>
<path d="M8.68114 27.7129C13.4756 27.7129 17.3623 23.8262 17.3623 19.0317C17.3623 14.2373 13.4756 10.3506 8.68114 10.3506C3.88668 10.3506 0 14.2373 0 19.0317C0 23.8262 3.88668 27.7129 8.68114 27.7129Z" fill="#F4F4F4"/>
<path d="M31.3855 27.7129C36.18 27.7129 40.0667 23.8262 40.0667 19.0317C40.0667 14.2373 36.18 10.3506 31.3855 10.3506C26.5911 10.3506 22.7044 14.2373 22.7044 19.0317C22.7044 23.8262 26.5911 27.7129 31.3855 27.7129Z" fill="#F4F4F4"/>
<path d="M16.6277 31.0518C18.4717 31.0518 19.9666 29.5569 19.9666 27.7129C19.9666 25.8688 18.4717 24.374 16.6277 24.374C14.7837 24.374 13.2888 25.8688 13.2888 27.7129C13.2888 29.5569 14.7837 31.0518 16.6277 31.0518Z" fill="#283238"/>
<path d="M23.3055 31.0518C25.1495 31.0518 26.6444 29.5569 26.6444 27.7129C26.6444 25.8688 25.1495 24.374 23.3055 24.374C21.4615 24.374 19.9666 25.8688 19.9666 27.7129C19.9666 29.5569 21.4615 31.0518 23.3055 31.0518Z" fill="#283238"/>
<path d="M19.2988 16.3606H20.6343" stroke="#AFB6BB" stroke-width="2" stroke-miterlimit="10" stroke-linecap="round"/>
<path d="M35.6594 20.3673C36.5814 20.3673 37.3288 19.6198 37.3288 18.6978C37.3288 17.7758 36.5814 17.0284 35.6594 17.0284C34.7374 17.0284 33.9899 17.7758 33.9899 18.6978C33.9899 19.6198 34.7374 20.3673 35.6594 20.3673Z" stroke="#DD352E" stroke-width="2" stroke-miterlimit="10"/>
<path d="M26.9783 20.3673C27.9003 20.3673 28.6477 19.6198 28.6477 18.6978C28.6477 17.7758 27.9003 17.0284 26.9783 17.0284C26.0563 17.0284 25.3088 17.7758 25.3088 18.6978C25.3088 19.6198 26.0563 20.3673 26.9783 20.3673Z" stroke="#BF4D90" stroke-width="2" stroke-miterlimit="10"/>
<path d="M12.1536 17.6962H9.9499V15.4925C9.9499 15.2254 9.74957 15.0251 9.48246 15.0251H7.74623C7.47912 15.0251 7.27878 15.2254 7.27878 15.4925V17.6962H5.07511C4.808 17.6962 4.60767 17.8965 4.60767 18.1636V19.8998C4.60767 20.167 4.808 20.3673 5.07511 20.3673H7.27878V22.571C7.27878 22.8381 7.47912 23.0384 7.74623 23.0384H9.48246C9.74957 23.0384 9.9499 22.8381 9.9499 22.571V20.3673H12.1536C12.4207 20.3673 12.621 20.167 12.621 19.8998V18.1636C12.621 17.8965 12.4207 17.6962 12.1536 17.6962Z" fill="#283238" stroke="#38454F" stroke-width="2" stroke-miterlimit="10" stroke-linecap="round"/>
<path d="M31.3189 24.0401C32.2409 24.0401 32.9883 23.2926 32.9883 22.3706C32.9883 21.4486 32.2409 20.7012 31.3189 20.7012C30.3969 20.7012 29.6494 21.4486 29.6494 22.3706C29.6494 23.2926 30.3969 24.0401 31.3189 24.0401Z" stroke="#5D7BDB" stroke-width="2" stroke-miterlimit="10"/>
<path d="M31.3189 16.6945C32.2409 16.6945 32.9883 15.9471 32.9883 15.025C32.9883 14.103 32.2409 13.3556 31.3189 13.3556C30.3969 13.3556 29.6494 14.103 29.6494 15.025C29.6494 15.9471 30.3969 16.6945 31.3189 16.6945Z" stroke="#20BEE2" stroke-width="2" stroke-miterlimit="10"/>
</g>
<path d="M70.0356 27.3047C69.2446 28.252 68.1264 28.9893 66.6811 29.5166C65.2358 30.0342 63.6342 30.293 61.8764 30.293C60.0307 30.293 58.4096 29.8926 57.0131 29.0918C55.6264 28.2812 54.5522 27.1094 53.7905 25.5762C53.0385 24.043 52.6528 22.2412 52.6332 20.1709V18.7207C52.6332 16.5918 52.9897 14.751 53.7026 13.1982C54.4252 11.6357 55.4604 10.4443 56.808 9.62402C58.1655 8.79395 59.7524 8.37891 61.5688 8.37891C64.0981 8.37891 66.0756 8.98438 67.5014 10.1953C68.9272 11.3965 69.7719 13.1494 70.0356 15.4541H65.7582C65.5629 14.2334 65.1284 13.3398 64.4545 12.7734C63.7905 12.207 62.8725 11.9238 61.7006 11.9238C60.2065 11.9238 59.0688 12.4854 58.2875 13.6084C57.5063 14.7314 57.1108 16.4014 57.101 18.6182V19.9805C57.101 22.2168 57.5258 23.9062 58.3754 25.0488C59.225 26.1914 60.4702 26.7627 62.1108 26.7627C63.7612 26.7627 64.9379 26.4111 65.6411 25.708V22.0312H61.642V18.7939H70.0356V27.3047ZM82.5161 30C82.3207 29.6191 82.1791 29.1455 82.0912 28.5791C81.0659 29.7217 79.7328 30.293 78.0922 30.293C76.5395 30.293 75.2504 29.8438 74.225 28.9453C73.2094 28.0469 72.7016 26.9141 72.7016 25.5469C72.7016 23.8672 73.3217 22.5781 74.562 21.6797C75.812 20.7812 77.6137 20.3271 79.9672 20.3174H81.9155V19.4092C81.9155 18.6768 81.725 18.0908 81.3442 17.6514C80.9731 17.2119 80.3823 16.9922 79.5717 16.9922C78.8588 16.9922 78.2973 17.1631 77.8871 17.5049C77.4868 17.8467 77.2866 18.3154 77.2866 18.9111H73.0532C73.0532 17.9932 73.3364 17.1436 73.9028 16.3623C74.4692 15.5811 75.27 14.9707 76.3051 14.5312C77.3403 14.082 78.5024 13.8574 79.7914 13.8574C81.7446 13.8574 83.2924 14.3506 84.435 15.3369C85.5873 16.3135 86.1635 17.6904 86.1635 19.4678V26.3379C86.1733 27.8418 86.3832 28.9795 86.7934 29.751V30H82.5161ZM79.0151 27.0557C79.6401 27.0557 80.2162 26.9189 80.7436 26.6455C81.2709 26.3623 81.6616 25.9863 81.9155 25.5176V22.793H80.3334C78.2143 22.793 77.0864 23.5254 76.9496 24.9902L76.935 25.2393C76.935 25.7666 77.1205 26.2012 77.4916 26.543C77.8627 26.8848 78.3705 27.0557 79.0151 27.0557ZM93.3852 14.1504L93.517 15.9229C94.6401 14.5459 96.1586 13.8574 98.0727 13.8574C100.114 13.8574 101.515 14.6631 102.277 16.2744C103.39 14.6631 104.977 13.8574 107.038 13.8574C108.756 13.8574 110.036 14.3604 110.875 15.3662C111.715 16.3623 112.135 17.8662 112.135 19.8779V30H107.887V19.8926C107.887 18.9941 107.711 18.3398 107.36 17.9297C107.008 17.5098 106.388 17.2998 105.499 17.2998C104.23 17.2998 103.351 17.9053 102.863 19.1162L102.877 30H98.644V19.9072C98.644 18.9893 98.4633 18.3252 98.102 17.915C97.7407 17.5049 97.1254 17.2998 96.2563 17.2998C95.0551 17.2998 94.186 17.7979 93.6489 18.7939V30H89.4155V14.1504H93.3852ZM122.697 30.293C120.372 30.293 118.478 29.5801 117.013 28.1543C115.558 26.7285 114.831 24.8291 114.831 22.4561V22.0459C114.831 20.4541 115.138 19.0332 115.753 17.7832C116.369 16.5234 117.238 15.5566 118.361 14.8828C119.494 14.1992 120.783 13.8574 122.228 13.8574C124.396 13.8574 126.1 14.541 127.34 15.9082C128.59 17.2754 129.215 19.2139 129.215 21.7236V23.4521H119.122C119.259 24.4873 119.669 25.3174 120.353 25.9424C121.046 26.5674 121.92 26.8799 122.975 26.8799C124.606 26.8799 125.88 26.2891 126.798 25.1074L128.878 27.4365C128.244 28.335 127.384 29.0381 126.3 29.5459C125.216 30.0439 124.015 30.293 122.697 30.293ZM122.213 17.2852C121.373 17.2852 120.69 17.5684 120.163 18.1348C119.645 18.7012 119.313 19.5117 119.166 20.5664H125.055V20.2295C125.036 19.292 124.782 18.5693 124.293 18.0615C123.805 17.5439 123.112 17.2852 122.213 17.2852Z" fill="#F3F3F3"/>
<path d="M139.413 20.4932C137.001 19.7998 135.243 18.9502 134.14 17.9443C133.046 16.9287 132.499 15.6787 132.499 14.1943C132.499 12.5146 133.168 11.1279 134.506 10.0342C135.853 8.93066 137.602 8.37891 139.75 8.37891C141.215 8.37891 142.518 8.66211 143.661 9.22852C144.813 9.79492 145.702 10.5762 146.327 11.5723C146.962 12.5684 147.279 13.6572 147.279 14.8389H144.452C144.452 13.5498 144.042 12.5391 143.222 11.8066C142.401 11.0645 141.244 10.6934 139.75 10.6934C138.363 10.6934 137.279 11.001 136.498 11.6162C135.727 12.2217 135.341 13.0664 135.341 14.1504C135.341 15.0195 135.707 15.7568 136.439 16.3623C137.182 16.958 138.436 17.5049 140.204 18.0029C141.981 18.501 143.368 19.0527 144.364 19.6582C145.37 20.2539 146.112 20.9521 146.591 21.7529C147.079 22.5537 147.323 23.4961 147.323 24.5801C147.323 26.3086 146.649 27.6953 145.302 28.7402C143.954 29.7754 142.152 30.293 139.896 30.293C138.432 30.293 137.064 30.0146 135.795 29.458C134.525 28.8916 133.544 28.1201 132.851 27.1436C132.167 26.167 131.825 25.0586 131.825 23.8184H134.652C134.652 25.1074 135.126 26.1279 136.073 26.8799C137.03 27.6221 138.305 27.9932 139.896 27.9932C141.381 27.9932 142.518 27.6904 143.31 27.085C144.101 26.4795 144.496 25.6543 144.496 24.6094C144.496 23.5645 144.13 22.7588 143.397 22.1924C142.665 21.6162 141.337 21.0498 139.413 20.4932ZM153.227 16.0693C154.428 14.5947 155.99 13.8574 157.914 13.8574C161.264 13.8574 162.953 15.7471 162.982 19.5264V30H160.272V19.5117C160.263 18.3691 159.999 17.5244 159.481 16.9775C158.974 16.4307 158.178 16.1572 157.094 16.1572C156.215 16.1572 155.443 16.3916 154.779 16.8604C154.115 17.3291 153.598 17.9443 153.227 18.7061V30H150.517V7.5H153.227V16.0693ZM166.322 21.9287C166.322 20.376 166.625 18.9795 167.23 17.7393C167.846 16.499 168.695 15.542 169.779 14.8682C170.873 14.1943 172.118 13.8574 173.515 13.8574C175.673 13.8574 177.416 14.6045 178.744 16.0986C180.082 17.5928 180.751 19.5801 180.751 22.0605V22.251C180.751 23.7939 180.453 25.1807 179.857 26.4111C179.271 27.6318 178.427 28.584 177.323 29.2676C176.229 29.9512 174.97 30.293 173.544 30.293C171.395 30.293 169.652 29.5459 168.314 28.0518C166.986 26.5576 166.322 24.5801 166.322 22.1191V21.9287ZM169.047 22.251C169.047 24.0088 169.452 25.4199 170.263 26.4844C171.083 27.5488 172.177 28.0811 173.544 28.0811C174.921 28.0811 176.015 27.5439 176.825 26.4697C177.636 25.3857 178.041 23.8721 178.041 21.9287C178.041 20.1904 177.626 18.7842 176.796 17.71C175.976 16.626 174.882 16.084 173.515 16.084C172.177 16.084 171.098 16.6162 170.277 17.6807C169.457 18.7451 169.047 20.2686 169.047 22.251ZM197.538 22.251C197.538 24.6631 196.986 26.6064 195.883 28.0811C194.779 29.5557 193.285 30.293 191.4 30.293C189.477 30.293 187.963 29.6826 186.859 28.4619V36.0938H184.149V14.1504H186.625L186.757 15.9082C187.86 14.541 189.393 13.8574 191.356 13.8574C193.261 13.8574 194.765 14.5752 195.868 16.0107C196.981 17.4463 197.538 19.4434 197.538 22.002V22.251ZM194.828 21.9434C194.828 20.1562 194.447 18.7451 193.685 17.71C192.924 16.6748 191.879 16.1572 190.551 16.1572C188.91 16.1572 187.68 16.8848 186.859 18.3398V25.9131C187.67 27.3584 188.91 28.0811 190.58 28.0811C191.879 28.0811 192.909 27.5684 193.671 26.543C194.442 25.5078 194.828 23.9746 194.828 21.9434Z" fill="#D01418"/>
<defs>
<clipPath id="clip0_3_255">
<rect width="40" height="40" fill="white"/>
</clipPath>
</defs>
</svg>
